<svg width="172" height="97" viewBox="0 0 172 97" fill="none" xmlns="http://www.w3.org/2000/svg">
<path d="M0.559063 88H3.16306L4.42306 84.1H11.5151L12.7991 88H15.4031L9.78706 70.72H6.17506L0.559063 88ZM5.19106 81.748L7.95106 73.228L10.7471 81.748H5.19106ZM21.7199 88.348C22.6559 88.348 23.4839 88.18 24.2039 87.844C24.9319 87.508 25.5319 87.044 26.0039 86.452V88H28.2359V75.04H25.7039V81.784C25.7039 82.808 25.5559 83.628 25.2599 84.244C24.9639 84.852 24.5639 85.292 24.0599 85.564C23.5639 85.836 23.0159 85.972 22.4159 85.972C21.7279 85.972 21.1679 85.832 20.7359 85.552C20.3039 85.272 19.9719 84.904 19.7399 84.448C19.5079 83.992 19.3479 83.5 19.2599 82.972C19.1799 82.436 19.1399 81.916 19.1399 81.412V75.04H16.5959V82.24C16.5959 82.64 16.6319 83.104 16.7039 83.632C16.7759 84.16 16.9119 84.7 17.1119 85.252C17.3119 85.804 17.5999 86.316 17.9759 86.788C18.3599 87.252 18.8559 87.628 19.4639 87.916C20.0719 88.204 20.8239 88.348 21.7199 88.348ZM38.2976 88V85.876C37.4496 86.004 36.7096 86.032 36.0776 85.96C35.4536 85.88 34.9976 85.596 34.7096 85.108C34.5576 84.844 34.4736 84.52 34.4576 84.136C34.4496 83.752 34.4456 83.3 34.4456 82.78V77.056H38.2976V75.04H34.4456V71.44H31.9256V75.04H29.4416V77.056H31.9256V82.9C31.9256 83.604 31.9336 84.236 31.9496 84.796C31.9736 85.348 32.1256 85.892 32.4056 86.428C32.7256 87.028 33.1936 87.468 33.8096 87.748C34.4256 88.028 35.1256 88.18 35.9096 88.204C36.6936 88.228 37.4896 88.16 38.2976 88ZM45.3286 88.36C46.6166 88.36 47.7366 88.072 48.6886 87.496C49.6406 86.912 50.3766 86.108 50.8966 85.084C51.4246 84.052 51.6886 82.86 51.6886 81.508C51.6886 80.172 51.4286 78.992 50.9086 77.968C50.3886 76.936 49.6526 76.132 48.7006 75.556C47.7486 74.972 46.6246 74.68 45.3286 74.68C44.0566 74.68 42.9446 74.968 41.9926 75.544C41.0406 76.12 40.3006 76.92 39.7726 77.944C39.2446 78.968 38.9806 80.156 38.9806 81.508C38.9806 82.844 39.2406 84.028 39.7606 85.06C40.2806 86.092 41.0126 86.9 41.9566 87.484C42.9086 88.068 44.0326 88.36 45.3286 88.36ZM45.3286 85.996C44.1206 85.996 43.2046 85.592 42.5806 84.784C41.9566 83.968 41.6446 82.876 41.6446 81.508C41.6446 80.188 41.9446 79.116 42.5446 78.292C43.1446 77.46 44.0726 77.044 45.3286 77.044C46.5526 77.044 47.4726 77.448 48.0886 78.256C48.7126 79.064 49.0246 80.148 49.0246 81.508C49.0246 82.836 48.7166 83.916 48.1006 84.748C47.4926 85.58 46.5686 85.996 45.3286 85.996ZM57.6903 88H63.1023C63.2623 88 63.5583 87.996 63.9903 87.988C64.4303 87.98 64.8503 87.948 65.2503 87.892C66.6023 87.716 67.7383 87.232 68.6583 86.44C69.5863 85.64 70.2863 84.628 70.7583 83.404C71.2303 82.172 71.4663 80.824 71.4663 79.36C71.4663 77.888 71.2303 76.54 70.7583 75.316C70.2863 74.084 69.5863 73.072 68.6583 72.28C67.7383 71.48 66.6023 70.996 65.2503 70.828C64.8503 70.772 64.4303 70.74 63.9903 70.732C63.5583 70.724 63.2623 70.72 63.1023 70.72H57.6903V88ZM60.2583 85.612V73.108H63.1023C63.3663 73.108 63.6863 73.116 64.0623 73.132C64.4463 73.14 64.7823 73.172 65.0703 73.228C65.9343 73.388 66.6383 73.764 67.1823 74.356C67.7343 74.94 68.1423 75.668 68.4063 76.54C68.6703 77.404 68.8023 78.344 68.8023 79.36C68.8023 80.344 68.6743 81.272 68.4183 82.144C68.1623 83.016 67.7583 83.752 67.2063 84.352C66.6623 84.944 65.9503 85.324 65.0703 85.492C64.7823 85.548 64.4503 85.584 64.0743 85.6C63.7063 85.608 63.3823 85.612 63.1023 85.612H60.2583ZM73.7806 72.916H76.2886V70.48H73.7806V72.916ZM73.7806 88H76.2886V75.04H73.7806V88ZM84.3202 88.36C85.0562 88.36 85.7202 88.248 86.3122 88.024C86.9042 87.808 87.4282 87.5 87.8842 87.1V88.324C87.9002 89.436 87.6122 90.276 87.0202 90.844C86.4362 91.42 85.6082 91.708 84.5362 91.708C83.9602 91.708 83.4122 91.58 82.8922 91.324C82.3722 91.068 81.9722 90.664 81.6922 90.112L79.3762 91.288C79.9042 92.208 80.6322 92.908 81.5602 93.388C82.4882 93.876 83.4722 94.12 84.5122 94.12C86.0242 94.12 87.2882 93.804 88.3042 93.172C89.3202 92.548 89.9642 91.58 90.2362 90.268C90.3002 89.964 90.3442 89.652 90.3682 89.332C90.3922 89.02 90.4042 88.692 90.4042 88.348V75.04H88.1842V76.204C87.7202 75.724 87.1682 75.352 86.5282 75.088C85.8882 74.816 85.1682 74.68 84.3682 74.68C83.1522 74.68 82.1002 74.98 81.2122 75.58C80.3322 76.172 79.6522 76.984 79.1722 78.016C78.6922 79.04 78.4522 80.204 78.4522 81.508C78.4522 82.804 78.6882 83.968 79.1602 85C79.6402 86.032 80.3202 86.852 81.2002 87.46C82.0802 88.06 83.1202 88.36 84.3202 88.36ZM84.6682 86.092C83.8682 86.092 83.2042 85.888 82.6762 85.48C82.1482 85.072 81.7562 84.524 81.5002 83.836C81.2442 83.14 81.1162 82.364 81.1162 81.508C81.1162 80.66 81.2442 79.892 81.5002 79.204C81.7642 78.516 82.1642 77.968 82.7002 77.56C83.2362 77.152 83.9202 76.948 84.7522 76.948C85.9362 76.948 86.8042 77.372 87.3562 78.22C87.9082 79.068 88.1842 80.164 88.1842 81.508C88.1842 82.852 87.9082 83.952 87.3562 84.808C86.8042 85.664 85.9082 86.092 84.6682 86.092ZM93.0417 88H95.5857V81.256C95.5857 80.232 95.7337 79.416 96.0297 78.808C96.3337 78.192 96.7337 77.748 97.2297 77.476C97.7257 77.204 98.2737 77.068 98.8737 77.068C99.5617 77.068 100.122 77.208 100.554 77.488C100.986 77.768 101.318 78.136 101.55 78.592C101.782 79.048 101.938 79.544 102.018 80.08C102.106 80.608 102.15 81.124 102.15 81.628V88H104.694V80.8C104.694 80.4 104.658 79.936 104.586 79.408C104.514 78.88 104.378 78.34 104.178 77.788C103.978 77.236 103.686 76.728 103.302 76.264C102.926 75.792 102.434 75.412 101.826 75.124C101.218 74.836 100.466 74.692 99.5697 74.692C98.6337 74.692 97.8017 74.86 97.0737 75.196C96.3537 75.532 95.7577 75.996 95.2857 76.588V75.04H93.0417V88ZM112.563 88.36C113.851 88.36 114.971 88.072 115.923 87.496C116.875 86.912 117.611 86.108 118.131 85.084C118.659 84.052 118.923 82.86 118.923 81.508C118.923 80.172 118.663 78.992 118.143 77.968C117.623 76.936 116.887 76.132 115.935 75.556C114.983 74.972 113.859 74.68 112.563 74.68C111.291 74.68 110.179 74.968 109.227 75.544C108.275 76.12 107.535 76.92 107.007 77.944C106.479 78.968 106.215 80.156 106.215 81.508C106.215 82.844 106.475 84.028 106.995 85.06C107.515 86.092 108.247 86.9 109.191 87.484C110.143 88.068 111.267 88.36 112.563 88.36ZM112.563 85.996C111.355 85.996 110.439 85.592 109.815 84.784C109.191 83.968 108.879 82.876 108.879 81.508C108.879 80.188 109.179 79.116 109.779 78.292C110.379 77.46 111.307 77.044 112.563 77.044C113.787 77.044 114.707 77.448 115.323 78.256C115.947 79.064 116.259 80.148 116.259 81.508C116.259 82.836 115.951 83.916 115.335 84.748C114.727 85.58 113.803 85.996 112.563 85.996ZM125.562 88.348C127.202 88.348 128.486 87.984 129.414 87.256C130.35 86.528 130.818 85.524 130.818 84.244C130.818 83.572 130.678 83.004 130.398 82.54C130.126 82.076 129.67 81.676 129.03 81.34C128.39 80.996 127.526 80.684 126.438 80.404C125.422 80.148 124.654 79.928 124.134 79.744C123.622 79.552 123.274 79.36 123.09 79.168C122.906 78.968 122.814 78.724 122.814 78.436C122.814 77.94 123.05 77.552 123.522 77.272C123.994 76.984 124.61 76.856 125.37 76.888C126.162 76.92 126.806 77.12 127.302 77.488C127.798 77.848 128.09 78.336 128.178 78.952L130.746 78.484C130.602 77.332 130.038 76.412 129.054 75.724C128.07 75.028 126.834 74.68 125.346 74.68C123.826 74.68 122.606 75.036 121.686 75.748C120.766 76.452 120.306 77.392 120.306 78.568C120.306 79.2 120.442 79.74 120.714 80.188C120.994 80.628 121.458 81.012 122.106 81.34C122.762 81.668 123.646 81.98 124.758 82.276C125.774 82.548 126.53 82.776 127.026 82.96C127.522 83.144 127.846 83.34 127.998 83.548C128.158 83.748 128.238 84.012 128.238 84.34C128.238 84.9 128.014 85.34 127.566 85.66C127.126 85.98 126.514 86.14 125.73 86.14C124.866 86.14 124.142 85.948 123.558 85.564C122.982 85.18 122.614 84.648 122.454 83.968L119.886 84.364C120.11 85.628 120.718 86.608 121.71 87.304C122.702 88 123.986 88.348 125.562 88.348ZM140.169 88V85.876C139.321 86.004 138.581 86.032 137.949 85.96C137.325 85.88 136.869 85.596 136.581 85.108C136.429 84.844 136.345 84.52 136.329 84.136C136.321 83.752 136.317 83.3 136.317 82.78V77.056H140.169V75.04H136.317V71.44H133.797V75.04H131.313V77.056H133.797V82.9C133.797 83.604 133.805 84.236 133.821 84.796C133.845 85.348 133.997 85.892 134.277 86.428C134.597 87.028 135.065 87.468 135.681 87.748C136.297 88.028 136.997 88.18 137.781 88.204C138.565 88.228 139.361 88.16 140.169 88ZM142.422 72.916H144.93V70.48H142.422V72.916ZM142.422 88H144.93V75.04H142.422V88ZM153.357 88.36C154.749 88.36 155.933 88.024 156.909 87.352C157.885 86.68 158.585 85.708 159.009 84.436L156.465 83.836C156.201 84.532 155.817 85.068 155.313 85.444C154.817 85.812 154.165 85.996 153.357 85.996C152.173 85.996 151.277 85.584 150.669 84.76C150.069 83.936 149.765 82.856 149.757 81.52C149.765 80.224 150.057 79.156 150.633 78.316C151.217 77.468 152.125 77.044 153.357 77.044C154.085 77.044 154.729 77.248 155.289 77.656C155.857 78.056 156.265 78.62 156.513 79.348L159.009 78.628C158.689 77.412 158.025 76.452 157.017 75.748C156.017 75.036 154.809 74.68 153.393 74.68C152.089 74.68 150.965 74.972 150.021 75.556C149.085 76.14 148.365 76.948 147.861 77.98C147.357 79.004 147.101 80.184 147.093 81.52C147.101 82.832 147.349 84.004 147.837 85.036C148.333 86.068 149.045 86.88 149.973 87.472C150.909 88.064 152.037 88.36 153.357 88.36ZM165.69 88.348C167.33 88.348 168.614 87.984 169.542 87.256C170.478 86.528 170.946 85.524 170.946 84.244C170.946 83.572 170.806 83.004 170.526 82.54C170.254 82.076 169.798 81.676 169.158 81.34C168.518 80.996 167.654 80.684 166.566 80.404C165.55 80.148 164.782 79.928 164.262 79.744C163.75 79.552 163.402 79.36 163.218 79.168C163.034 78.968 162.942 78.724 162.942 78.436C162.942 77.94 163.178 77.552 163.65 77.272C164.122 76.984 164.738 76.856 165.498 76.888C166.29 76.92 166.934 77.12 167.43 77.488C167.926 77.848 168.218 78.336 168.306 78.952L170.874 78.484C170.73 77.332 170.166 76.412 169.182 75.724C168.198 75.028 166.962 74.68 165.474 74.68C163.954 74.68 162.734 75.036 161.814 75.748C160.894 76.452 160.434 77.392 160.434 78.568C160.434 79.2 160.57 79.74 160.842 80.188C161.122 80.628 161.586 81.012 162.234 81.34C162.89 81.668 163.774 81.98 164.886 82.276C165.902 82.548 166.658 82.776 167.154 82.96C167.65 83.144 167.974 83.34 168.126 83.548C168.286 83.748 168.366 84.012 168.366 84.34C168.366 84.9 168.142 85.34 167.694 85.66C167.254 85.98 166.642 86.14 165.858 86.14C164.994 86.14 164.27 85.948 163.686 85.564C163.11 85.18 162.742 84.648 162.582 83.968L160.014 84.364C160.238 85.628 160.846 86.608 161.838 87.304C162.83 88 164.114 88.348 165.69 88.348Z" fill="black"/>
<path d="M64.2528 27.0167C64.468 26.7484 64.7891 26.5918 65.1259 26.5918H69.4081C70.4649 23.7425 71.8416 20.9508 73.4064 19.897C78.8198 16.2566 93.1783 16.2566 98.5916 19.897C100.158 20.952 101.529 23.7471 102.591 26.5918H106.873C107.213 26.5918 107.533 26.7484 107.746 27.0167C107.96 27.2839 108.046 27.6375 107.976 27.9772L107.342 31.119C107.234 31.6546 106.772 32.0369 106.239 32.0369H104.97C106.195 33.4811 106.789 35.2996 106.797 37.1193C106.804 39.3674 105.97 41.3989 104.443 42.8362C104.426 42.8512 104.409 42.8616 104.394 42.8765V47.2725C104.394 48.2249 103.636 49 102.704 49H98.7538C97.821 49 97.0639 48.2249 97.0639 47.2725V45.5058H74.9364V47.2725C74.9364 48.2249 74.1793 49 73.2465 49H69.2966C68.366 49 67.6067 48.2249 67.6067 47.2725V42.9629C65.9867 41.4461 65.2127 39.3593 65.2025 37.2759C65.1958 35.3941 65.8165 33.5088 67.1133 32.0346H65.7602C65.2251 32.0346 64.7632 31.6522 64.6573 31.1156L64.0219 27.9749C63.9565 27.6375 64.0388 27.2862 64.2528 27.0167ZM96.7361 22.782C92.4212 19.8786 79.5791 19.8786 75.2665 22.782C74.4283 23.344 73.3501 25.6163 72.3621 28.3987H99.6382C98.6524 25.6174 97.5743 23.3463 96.7361 22.782ZM101.79 37.5523C101.79 35.6751 100.301 34.1549 98.4654 34.1549C96.6279 34.1549 95.1408 35.6751 95.1408 37.5523C95.1408 39.4296 96.6279 40.9509 98.4654 40.9509C100.301 40.9509 101.79 39.4296 101.79 37.5523ZM73.4909 40.9509C75.3262 40.9509 76.8155 39.4296 76.8155 37.5523C76.8155 35.6751 75.3262 34.1549 73.4909 34.1549C71.6535 34.1549 70.1663 35.6751 70.1663 37.5523C70.1663 39.4296 71.6557 40.9509 73.4909 40.9509Z" fill="black"/>
<mask id="mask0_917:43" style="mask-type:alpha" maskUnits="userSpaceOnUse" x="70" y="0" width="25" height="28">
<path d="M90.555 14.4818C90.5057 15.0402 90.1983 15.5656 89.6837 15.8602C89.2566 16.1048 88.8163 16.2847 88.3666 16.4064C88.62 17.2806 89.0856 18.5457 89.9143 19.9007C90.7014 21.1883 90.7108 22.7423 89.939 24.1645C88.8021 26.2606 86.2918 27.6691 83.6913 27.6691C81.9053 27.6691 80.3175 26.8283 79.2208 25.3014C77.6532 23.1184 77.3058 19.8968 78.2922 16.6853C79.2064 13.7082 77.9837 12.12 77.1747 11.4373C76.5151 12.0871 75.6205 12.4878 74.6318 12.4878C72.6059 12.4878 70.9624 10.8082 70.9624 8.73616C70.9624 6.66411 72.6059 4.98501 74.6318 4.98501C76.6587 4.98501 78.3013 6.66459 78.3013 8.73616C78.3013 9.0279 78.2657 9.31025 78.2042 9.58283C79.732 10.7252 81.4956 13.2966 80.2614 17.3169C79.4831 19.852 79.7219 22.4327 80.8855 24.0525C81.3788 24.74 82.2667 25.5593 83.6918 25.5593C85.5357 25.5593 87.3627 24.5648 88.1342 23.1416C88.4189 22.6166 88.6545 21.8214 88.1637 21.0185C87.0677 19.2249 86.5191 17.5512 86.2589 16.5282C85.6497 16.4344 85.0549 16.2335 84.4828 15.9212C83.9728 15.6428 83.6598 15.1389 83.5909 14.5943C81.1665 12.3538 80.0472 8.31686 79.9828 8.0806C79.852 7.59595 80.0755 7.0984 80.4919 6.87154C80.1571 3.84091 81.2544 2.31345 81.9164 1.69128C81.866 1.40011 81.9799 1.08865 82.2301 0.921722L83.4467 0.108913C83.7645 -0.103252 84.164 0.00382639 84.3381 0.349531L84.9178 1.49477C85.0924 1.84057 84.9385 2.20932 84.5738 2.31933L83.1984 2.7338C82.8496 2.83889 82.4318 2.66855 82.2344 2.35613C81.6863 2.94644 80.8969 4.26069 81.1688 6.76778C81.5426 6.84052 81.863 7.11889 81.9716 7.51913C82.302 8.7317 83.2565 11.2363 84.6737 12.7382C85.1248 12.56 85.6434 12.5688 86.1034 12.8192C86.403 12.9828 86.696 13.0652 86.9967 13.0716H87.0587C87.3755 13.0647 87.6849 12.9734 88.0017 12.7922C88.4504 12.5349 88.9614 12.5123 89.4121 12.6748C90.7975 11.1668 91.7317 8.7152 92.0567 7.51932C92.1655 7.12012 92.4872 6.84109 92.8597 6.76844C93.1321 4.26135 92.343 2.9471 91.7941 2.3568C91.5965 2.66912 91.1792 2.83955 90.8305 2.73437L89.455 2.3199C89.0909 2.20989 88.9359 1.84057 89.111 1.49533L89.6902 0.350005C89.8648 0.00420578 90.2643 -0.102778 90.5816 0.109387L91.7994 0.922765C92.0495 1.08969 92.1631 1.40106 92.1129 1.69232C92.774 2.31459 93.8722 3.84138 93.5372 6.87249C93.9539 7.09945 94.1766 7.5969 94.0464 8.08212C93.9831 8.31344 92.8975 12.2217 90.555 14.4818ZM74.6318 7.27083C73.8411 7.27083 73.1988 7.92648 73.1988 8.73635C73.1988 9.54565 73.8411 10.2018 74.6318 10.2018C75.4236 10.2018 76.0654 9.54565 76.0654 8.73635C76.0654 7.92639 75.424 7.27083 74.6318 7.27083Z" fill="black"/>
</mask>
<g mask="url(#mask0_917:43)">
<path d="M115.515 -2.65564H82.4862L79.0998 6.21222L82.4862 19.5377H115.515V-2.65564Z" fill="black"/>
</g>
</svg>
