<svg width="32" height="33" viewBox="0 0 32 33" fill="none" xmlns="http://www.w3.org/2000/svg">
<rect width="32" height="33" fill="#B8B8B8"/>
<g clip-path="url(#clip0_482:447)">
<rect width="1920" height="7766" transform="translate(-347 -4654)" fill="white"/>
<rect x="-345" y="-283" width="1920" height="611" fill="#FAFAFA"/>
<g opacity="0.8">
<path d="M25.2793 14.4797C24.801 14.9627 24.4347 15.5456 24.2065 16.1869C23.9783 16.8282 23.8938 17.5121 23.9591 18.19L23.9364 18.1672C24.0035 18.965 23.8963 19.7679 23.6223 20.5199C23.3482 21.2719 22.914 21.9548 22.3499 22.521C21.7857 23.0872 21.1052 23.523 20.3559 23.798C19.6066 24.073 18.8066 24.1805 18.0116 24.1132L18.0343 24.136C17.0833 24.0472 16.1282 24.2548 15.2991 24.7307C14.4701 25.2066 13.8075 25.9276 13.4016 26.7952C12.9958 27.6629 12.8665 28.6351 13.0314 29.5792C13.1962 30.5233 13.6472 31.3934 14.3229 32.0709C14.9985 32.7483 15.8659 33.2002 16.8068 33.3648C17.7477 33.5294 18.7163 33.3987 19.5805 32.9907C20.4447 32.5826 21.1625 31.9169 21.6359 31.0845C22.1094 30.252 22.3154 29.2933 22.2261 28.339L22.2501 28.3618C22.183 27.5639 22.2901 26.761 22.5642 26.009C22.8382 25.257 23.2724 24.5741 23.8366 24.008C24.4007 23.4418 25.0812 23.006 25.8305 22.731C26.5798 22.456 27.3798 22.3484 28.1748 22.4158L28.1509 22.393C28.9277 22.4631 29.7096 22.3353 30.4241 22.0213C31.1386 21.7074 31.7625 21.2176 32.2382 20.5973C32.7138 19.9769 33.0257 19.2461 33.145 18.4725C33.2642 17.699 33.187 16.9077 32.9204 16.1721C32.6538 15.4365 32.2065 14.7803 31.62 14.2644C31.0334 13.7485 30.3266 13.3895 29.5649 13.2207C28.8033 13.0519 28.0116 13.0788 27.2631 13.2989C26.5146 13.519 25.8336 13.9251 25.2831 14.4797H25.2793Z" fill="#1E1B1B"/>
<path d="M15.9678 21.1486L15.9439 21.1258C16.6196 21.1941 17.3019 21.1109 17.9417 20.8822C18.5814 20.6534 19.1624 20.2848 19.6428 19.8031C20.1232 19.3213 20.4909 18.7384 20.7193 18.0966C20.9478 17.4548 21.0312 16.77 20.9636 16.0918L20.9876 16.1146C20.9205 15.3168 21.0277 14.5138 21.3017 13.7619C21.5757 13.0099 22.01 12.327 22.5741 11.7608C23.1383 11.1946 23.8188 10.7588 24.568 10.4838C25.3173 10.2088 26.1174 10.1013 26.9124 10.1686L26.8884 10.1458C27.8395 10.2354 28.7949 10.0285 29.6245 9.5531C30.454 9.07775 31.1172 8.35715 31.5236 7.48961C31.9301 6.62206 32.06 5.64981 31.8956 4.70545C31.7312 3.7611 31.2806 2.89062 30.6051 2.21275C29.9297 1.53487 29.0623 1.08261 28.1214 0.917647C27.1804 0.752682 26.2116 0.883043 25.3471 1.29095C24.4827 1.69886 23.7647 2.36446 23.291 3.19696C22.8174 4.02946 22.6111 4.98834 22.7004 5.94279L22.6777 5.91872C22.7451 6.71663 22.638 7.51966 22.3641 8.27175C22.0901 9.02383 21.6559 9.70683 21.0917 10.2731C20.5275 10.8393 19.8469 11.2751 19.0975 11.55C18.3481 11.8249 17.548 11.9323 16.7529 11.8648L16.7757 11.8888C16.1 11.8205 15.4176 11.9037 14.7779 12.1325C14.1381 12.3613 13.5571 12.7298 13.0767 13.2116C12.5963 13.6933 12.2286 14.2762 12.0002 14.918C11.7717 15.5599 11.6883 16.2446 11.7559 16.9228L11.7332 16.9C11.8 17.6978 11.6927 18.5006 11.4186 19.2525C11.1445 20.0044 10.7103 20.6872 10.1462 21.2534C9.58205 21.8195 8.90168 22.2553 8.15248 22.5304C7.40329 22.8054 6.60332 22.9132 5.80837 22.846L5.83109 22.8688C4.88004 22.7792 3.92459 22.9862 3.09507 23.4615C2.26554 23.9369 1.60232 24.6575 1.19587 25.525C0.789414 26.3926 0.659517 27.3648 0.823893 28.3092C0.988269 29.2535 1.43892 30.124 2.11437 30.8019C2.78982 31.4798 3.65719 31.932 4.59817 32.097C5.53915 32.262 6.50793 32.1316 7.37237 31.7237C8.23682 31.3158 8.95484 30.6502 9.42849 29.8177C9.90215 28.9852 10.1084 28.0263 10.0191 27.0719L10.0431 27.0947C9.97595 26.2968 10.0831 25.4939 10.3572 24.7419C10.6312 23.9899 11.0654 23.307 11.6296 22.7408C12.1937 22.1746 12.8742 21.7389 13.6235 21.4639C14.3728 21.1889 15.1728 21.0813 15.9678 21.1486V21.1486Z" fill="#1E1B1B"/>
<path d="M7.50874 18.6063C7.98714 18.1234 8.35341 17.5405 8.58142 16.8991C8.80942 16.2578 8.89353 15.5738 8.82774 14.896L8.85172 14.9188C8.78456 14.1208 8.89181 13.3176 9.16597 12.5654C9.44013 11.8132 9.8746 11.1302 10.439 10.564C11.0035 9.99775 11.6843 9.56201 12.4339 9.28718C13.1835 9.01236 13.9838 8.90507 14.779 8.97281L14.7551 8.95001C15.7058 9.0394 16.6608 8.8323 17.49 8.35698C18.3191 7.88166 18.982 7.16124 19.3882 6.29396C19.7944 5.42669 19.9242 4.45479 19.7598 3.51079C19.5954 2.56679 19.1449 1.69664 18.4697 1.01902C17.7945 0.341392 16.9275 -0.110728 15.9868 -0.275686C15.0462 -0.440645 14.0778 -0.310411 13.2136 0.0972525C12.3494 0.504916 11.6316 1.17016 11.158 2.00228C10.6843 2.8344 10.478 3.79287 10.5671 4.747L10.5443 4.7242C10.6114 5.52205 10.5043 6.32499 10.2302 7.07697C9.95622 7.82895 9.52198 8.51186 8.95783 9.07804C8.39368 9.64421 7.71321 10.08 6.96392 10.355C6.21462 10.63 5.41455 10.7376 4.61955 10.6702L4.64227 10.693C3.86547 10.6231 3.08366 10.7511 2.36928 11.0652C1.65489 11.3792 1.03105 11.8691 0.555569 12.4896C0.080084 13.11 -0.231664 13.8408 -0.350785 14.6144C-0.469906 15.3879 -0.392547 16.1791 -0.125875 16.9146C0.140797 17.6501 0.588153 18.3062 1.17474 18.8221C1.76132 19.3379 2.46816 19.6968 3.22974 19.8655C3.99133 20.0342 4.78302 20.0072 5.53146 19.7871C6.2799 19.567 6.96086 19.1608 7.51126 18.6063H7.50874Z" fill="#1E1B1B"/>
</g>
</g>
<defs>
<clipPath id="clip0_482:447">
<rect width="1920" height="7766" fill="white" transform="translate(-347 -4654)"/>
</clipPath>
</defs>
</svg>
